<svg xmlns="http://www.w3.org/2000/svg" viewBox="0 0 1200 720" role="img" aria-labelledby="title desc"><title id="title">PMF to CDF</title><desc id="desc">Side-by-side discrete mass and cumulative step plots</desc><rect width="1200" height="720" fill="#ffffff"/><text x="60" y="58" font-family="Inter,Arial,sans-serif" font-size="34" font-weight="500" text-anchor="start" fill="#172033">PMF accumulates into a CDF</text><text x="70" y="115" font-family="Inter,Arial,sans-serif" font-size="24" font-weight="500" text-anchor="start" fill="#172033">PMF p(x)</text><line x1="70" y1="580" x2="540" y2="580" stroke="#172033" stroke-width="2"/><line x1="70" y1="150" x2="70" y2="580" stroke="#172033" stroke-width="2"/><line x1="115" y1="580" x2="115" y2="512.5" stroke="#2563eb" stroke-width="12"/><circle cx="115" cy="512.5" r="8" fill="#2563eb"/><text x="115" y="610" font-family="Inter,Arial,sans-serif" font-size="15" font-weight="400" text-anchor="middle" fill="#172033">0</text><line x1="173" y1="580" x2="173" y2="445.0" stroke="#2563eb" stroke-width="12"/><circle cx="173" cy="445.0" r="8" fill="#2563eb"/><text x="173" y="610" font-family="Inter,Arial,sans-serif" font-size="15" font-weight="400" text-anchor="middle" fill="#172033">1</text><line x1="231" y1="580" x2="231" y2="377.5" stroke="#2563eb" stroke-width="12"/><circle cx="231" cy="377.5" r="8" fill="#2563eb"/><text x="231" y="610" font-family="Inter,Arial,sans-serif" font-size="15" font-weight="400" text-anchor="middle" fill="#172033">2</text><line x1="289" y1="580" x2="289" y2="242.5" stroke="#2563eb" stroke-width="12"/><circle cx="289" cy="242.5" r="8" fill="#2563eb"/><text x="289" y="610" font-family="Inter,Arial,sans-serif" font-size="15" font-weight="400" text-anchor="middle" fill="#172033">3</text><line x1="347" y1="580" x2="347" y2="310.0" stroke="#2563eb" stroke-width="12"/><circle cx="347" cy="310.0" r="8" fill="#2563eb"/><text x="347" y="610" font-family="Inter,Arial,sans-serif" font-size="15" font-weight="400" text-anchor="middle" fill="#172033">4</text><line x1="405" y1="580" x2="405" y2="377.5" stroke="#2563eb" stroke-width="12"/><circle cx="405" cy="377.5" r="8" fill="#2563eb"/><text x="405" y="610" font-family="Inter,Arial,sans-serif" font-size="15" font-weight="400" text-anchor="middle" fill="#172033">5</text><line x1="463" y1="580" x2="463" y2="445.0" stroke="#2563eb" stroke-width="12"/><circle cx="463" cy="445.0" r="8" fill="#2563eb"/><text x="463" y="610" font-family="Inter,Arial,sans-serif" font-size="15" font-weight="400" text-anchor="middle" fill="#172033">6</text><text x="305.0" y="645" font-family="Inter,Arial,sans-serif" font-size="18" font-weight="500" text-anchor="middle" fill="#172033">x</text><text x="650" y="115" font-family="Inter,Arial,sans-serif" font-size="24" font-weight="500" text-anchor="start" fill="#172033">CDF F(x)</text><line x1="650" y1="580" x2="1120" y2="580" stroke="#172033" stroke-width="2"/><line x1="650" y1="150" x2="650" y2="580" stroke="#172033" stroke-width="2"/><line x1="660" y1="580" x2="695" y2="580" stroke="#7c3aed" stroke-width="5"/><line x1="695" y1="580" x2="695" y2="562.0" stroke="#7c3aed" stroke-width="2" stroke-dasharray="7 7"/><line x1="695" y1="562.0" x2="753" y2="562.0" stroke="#7c3aed" stroke-width="5"/><line x1="753" y1="562.0" x2="753" y2="526.0" stroke="#7c3aed" stroke-width="2" stroke-dasharray="7 7"/><text x="695" y="610" font-family="Inter,Arial,sans-serif" font-size="15" font-weight="400" text-anchor="middle" fill="#172033">0</text><line x1="753" y1="526.0" x2="811" y2="526.0" stroke="#7c3aed" stroke-width="5"/><line x1="811" y1="526.0" x2="811" y2="472.0" stroke="#7c3aed" stroke-width="2" stroke-dasharray="7 7"/><text x="753" y="610" font-family="Inter,Arial,sans-serif" font-size="15" font-weight="400" text-anchor="middle" fill="#172033">1</text><line x1="811" y1="472.0" x2="869" y2="472.0" stroke="#7c3aed" stroke-width="5"/><line x1="869" y1="472.0" x2="869" y2="382.0" stroke="#7c3aed" stroke-width="2" stroke-dasharray="7 7"/><text x="811" y="610" font-family="Inter,Arial,sans-serif" font-size="15" font-weight="400" text-anchor="middle" fill="#172033">2</text><line x1="869" y1="382.0" x2="927" y2="382.0" stroke="#7c3aed" stroke-width="5"/><line x1="927" y1="382.0" x2="927" y2="310.0" stroke="#7c3aed" stroke-width="2" stroke-dasharray="7 7"/><text x="869" y="610" font-family="Inter,Arial,sans-serif" font-size="15" font-weight="400" text-anchor="middle" fill="#172033">3</text><line x1="927" y1="310.0" x2="985" y2="310.0" stroke="#7c3aed" stroke-width="5"/><line x1="985" y1="310.0" x2="985" y2="256.0" stroke="#7c3aed" stroke-width="2" stroke-dasharray="7 7"/><text x="927" y="610" font-family="Inter,Arial,sans-serif" font-size="15" font-weight="400" text-anchor="middle" fill="#172033">4</text><line x1="985" y1="256.0" x2="1043" y2="256.0" stroke="#7c3aed" stroke-width="5"/><line x1="1043" y1="256.0" x2="1043" y2="220.0" stroke="#7c3aed" stroke-width="2" stroke-dasharray="7 7"/><text x="985" y="610" font-family="Inter,Arial,sans-serif" font-size="15" font-weight="400" text-anchor="middle" fill="#172033">5</text><line x1="1043" y1="220.0" x2="1105" y2="220.0" stroke="#7c3aed" stroke-width="5"/><text x="1043" y="610" font-family="Inter,Arial,sans-serif" font-size="15" font-weight="400" text-anchor="middle" fill="#172033">6</text><text x="885.0" y="645" font-family="Inter,Arial,sans-serif" font-size="18" font-weight="500" text-anchor="middle" fill="#172033">x</text></svg>
